{"accessors":[{"bufferView":0,"componentType":5126,"count":87,"min":[-878.68896484375,-108.99517059326172,-709.5548706054688],"max":[878.68603515625,249.50550842285157,646.588623046875],"type":"VEC3","name":"x4_Main_vertices#0_POSITION"},{"bufferView":0,"byteOffset":12,"componentType":5120,"count":87,"type":"VEC4","name":"x4_Main_vertices#0_TANGENT"},{"bufferView":0,"byteOffset":16,"componentType":5120,"count":87,"type":"VEC4","name":"x4_Main_vertices#0_NORMAL"},{"bufferView":0,"byteOffset":20,"componentType":5122,"count":87,"type":"VEC2","name":"x4_Main_vertices#0_TEXCOORD_0"},{"bufferView":0,"byteOffset":24,"componentType":5122,"count":87,"type":"VEC2","name":"x4_Main_vertices#0_TEXCOORD_1"},{"bufferView":0,"byteOffset":28,"componentType":5123,"count":87,"type":"VEC4","name":"x4_Main_vertices#0_COLOR_0"},{"bufferView":1,"componentType":5123,"count":153,"type":"SCALAR","name":"x4_Main_indices#1"}],"asset":{"generator":"babylon.js glTF exporter for 3dsmax 2019 v1.0.7842.25352","version":"2.0","extensions":{"ASOBO_asset_optimized":{"BoundingBoxMax":[878.68603515625,249.50550842285157,646.588623046875],"BoundingBoxMin":[-878.68896484375,-108.99517059326172,-709.5548706054688],"MajorVersion":4,"MinorVersion":4,"UseCheckerboardMaterialForMissingTextures":true},"ASOBO_normal_map_convention":{"tangent_space_convention":"DirectX"}}},"bufferViews":[{"buffer":0,"byteLength":3132,"byteStride":36,"target":34962,"name":"BufferViewVertexND"},{"buffer":0,"byteLength":306,"byteOffset":3132,"target":34963,"name":"BufferViewIndex"}],"extensionsRequired":["MSFT_texture_dds"],"materials":[{"name":"Main","normalTexture":{"index":2},"occlusionTexture":{"index":1},"pbrMetallicRoughness":{"baseColorTexture":{"index":0},"metallicRoughnessTexture":{"index":1}}},{"name":"Wings","normalTexture":{"index":5},"occlusionTexture":{"index":4},"pbrMetallicRoughness":{"baseColorTexture":{"index":3},"metallicRoughnessTexture":{"index":4}}}],"meshes":[{"primitives":[{"attributes":{"COLOR_0":5,"NORMAL":2,"POSITION":0,"TANGENT":1,"TEXCOORD_0":3,"TEXCOORD_1":4},"indices":6,"material":0,"mode":4,"extras":{"ASOBO_primitive":{"PrimitiveCount":18,"VertexType":"VTX","VertexVersion":2}}},{"attributes":{"COLOR_0":5,"NORMAL":2,"POSITION":0,"TANGENT":1,"TEXCOORD_0":3,"TEXCOORD_1":4},"indices":6,"material":1,"mode":4,"extras":{"ASOBO_primitive":{"PrimitiveCount":33,"StartIndex":54,"VertexType":"VTX","VertexVersion":2}}}],"name":"x4_Main"}],"nodes":[{"translation":[0.0000147246756,0.608352661,-1.14843178],"scale":[0.01,0.01,0.01],"mesh":0,"extensions":{"ASOBO_unique_id":{"id":"x4_Main_2058"}},"name":"Main"}],"scene":0,"scenes":[{"nodes":[0]}],"textures":[{"extensions":{"MSFT_texture_dds":{"source":0}}},{"extensions":{"MSFT_texture_dds":{"source":1}}},{"extensions":{"MSFT_texture_dds":{"source":2}}},{"extensions":{"MSFT_texture_dds":{"source":3}}},{"extensions":{"MSFT_texture_dds":{"source":4}}},{"extensions":{"MSFT_texture_dds":{"source":5}}}],"extensionsUsed":["ASOBO_normal_map_convention","ASOBO_unique_id","MSFT_texture_dds","ASOBO_asset_optimized"],"buffers":[{"byteLength":3438,"uri":"Generic_Turbo_MultiEngines_LOD04.bin"}],"images":[{"uri":"GENERIC_TURBO_MULTIENGINES_MAIN_ALBD.PNG.DDS","extras":"ASOBO_image_converted_meta"},{"uri":"GENERIC_TURBO_MULTIENGINES_MAIN_COMP.PNG.DDS","extras":"ASOBO_image_converted_meta"},{"uri":"GENERIC_TURBO_MULTIENGINES_MAIN_NORM.PNG.DDS","extras":"ASOBO_image_converted_meta"},{"uri":"GENERIC_TURBO_MULTIENGINES_WING_ALBD.PNG.DDS","extras":"ASOBO_image_converted_meta"},{"uri":"GENERIC_TURBO_MULTIENGINES_WING_COMP.PNG.DDS","extras":"ASOBO_image_converted_meta"},{"uri":"GENERIC_TURBO_MULTIENGINES_WING_NORM.PNG.DDS","extras":"ASOBO_image_converted_meta"}]}
