{"accessors":[{"bufferView":0,"componentType":5126,"count":115,"min":[-173.29928588867188,-70.75288391113281,-587.035888671875],"max":[172.71839904785157,135.91030883789063,348.6192932128906],"type":"VEC3","name":"x4_main_Fuselage_vertices#0_POSITION"},{"bufferView":0,"byteOffset":12,"componentType":5120,"count":115,"type":"VEC4","name":"x4_main_Fuselage_vertices#0_TANGENT"},{"bufferView":0,"byteOffset":16,"componentType":5120,"count":115,"type":"VEC4","name":"x4_main_Fuselage_vertices#0_NORMAL"},{"bufferView":0,"byteOffset":20,"componentType":5122,"count":115,"type":"VEC2","name":"x4_main_Fuselage_vertices#0_TEXCOORD_0"},{"bufferView":0,"byteOffset":24,"componentType":5122,"count":115,"type":"VEC2","name":"x4_main_Fuselage_vertices#0_TEXCOORD_1"},{"bufferView":0,"byteOffset":28,"componentType":5123,"count":115,"type":"VEC4","name":"x4_main_Fuselage_vertices#0_COLOR_0"},{"bufferView":1,"componentType":5123,"count":174,"type":"SCALAR","name":"x4_main_Fuselage_indices#0"},{"bufferView":0,"byteOffset":4140,"componentType":5126,"count":22,"min":[-597.4910278320313,-75.42848205566406,98.90620422363281],"max":[596.5817260742188,-4.212884902954102,280.6973571777344],"type":"VEC3","name":"x4_wing_vertices#0_POSITION"},{"bufferView":0,"byteOffset":4152,"componentType":5120,"count":22,"type":"VEC4","name":"x4_wing_vertices#0_TANGENT"},{"bufferView":0,"byteOffset":4156,"componentType":5120,"count":22,"type":"VEC4","name":"x4_wing_vertices#0_NORMAL"},{"bufferView":0,"byteOffset":4160,"componentType":5122,"count":22,"type":"VEC2","name":"x4_wing_vertices#0_TEXCOORD_0"},{"bufferView":0,"byteOffset":4164,"componentType":5122,"count":22,"type":"VEC2","name":"x4_wing_vertices#0_TEXCOORD_1"},{"bufferView":0,"byteOffset":4168,"componentType":5123,"count":22,"type":"VEC4","name":"x4_wing_vertices#0_COLOR_0"},{"bufferView":1,"byteOffset":348,"componentType":5123,"count":30,"type":"SCALAR","name":"x4_wing_indices#0"},{"bufferView":0,"byteOffset":4932,"componentType":5126,"count":8,"min":[-59.56049728393555,-32.736019134521487,-140.83607482910157],"max":[59.26681137084961,30.549598693847658,140.46556091308595],"type":"VEC3","name":"x4_main_Glass_vertices#0_POSITION"},{"bufferView":0,"byteOffset":4944,"componentType":5120,"count":8,"type":"VEC4","name":"x4_main_Glass_vertices#0_TANGENT"},{"bufferView":0,"byteOffset":4948,"componentType":5120,"count":8,"type":"VEC4","name":"x4_main_Glass_vertices#0_NORMAL"},{"bufferView":0,"byteOffset":4952,"componentType":5122,"count":8,"type":"VEC2","name":"x4_main_Glass_vertices#0_TEXCOORD_0"},{"bufferView":0,"byteOffset":4956,"componentType":5122,"count":8,"type":"VEC2","name":"x4_main_Glass_vertices#0_TEXCOORD_1"},{"bufferView":0,"byteOffset":4960,"componentType":5123,"count":8,"type":"VEC4","name":"x4_main_Glass_vertices#0_COLOR_0"},{"bufferView":1,"byteOffset":408,"componentType":5123,"count":12,"type":"SCALAR","name":"x4_main_Glass_indices#0"},{"bufferView":0,"byteOffset":5220,"componentType":5126,"count":9,"min":[-56.33573532104492,-27.441795349121095,-46.08514404296875],"max":[56.08533477783203,28.93262481689453,48.173675537109378],"type":"VEC3","name":"x4_main_Windshield_vertices#0_POSITION"},{"bufferView":0,"byteOffset":5232,"componentType":5120,"count":9,"type":"VEC4","name":"x4_main_Windshield_vertices#0_TANGENT"},{"bufferView":0,"byteOffset":5236,"componentType":5120,"count":9,"type":"VEC4","name":"x4_main_Windshield_vertices#0_NORMAL"},{"bufferView":0,"byteOffset":5240,"componentType":5122,"count":9,"type":"VEC2","name":"x4_main_Windshield_vertices#0_TEXCOORD_0"},{"bufferView":0,"byteOffset":5244,"componentType":5122,"count":9,"type":"VEC2","name":"x4_main_Windshield_vertices#0_TEXCOORD_1"},{"bufferView":0,"byteOffset":5248,"componentType":5123,"count":9,"type":"VEC4","name":"x4_main_Windshield_vertices#0_COLOR_0"},{"bufferView":1,"byteOffset":432,"componentType":5123,"count":24,"type":"SCALAR","name":"x4_main_Windshield_indices#0"}],"asset":{"generator":"babylon.js glTF exporter for 3dsmax 2019 v1.0.7842.25352","version":"2.0","extensions":{"ASOBO_asset_optimized":{"BoundingBoxMax":[596.5817260742188,135.91030883789063,348.6192932128906],"BoundingBoxMin":[-597.4910278320313,-75.42848205566406,-587.035888671875],"MajorVersion":4,"MinorVersion":4,"UseCheckerboardMaterialForMissingTextures":true},"ASOBO_normal_map_convention":{"tangent_space_convention":"DirectX"}}},"bufferViews":[{"buffer":0,"byteLength":5544,"byteStride":36,"target":34962,"name":"BufferViewVertexND"},{"buffer":0,"byteLength":480,"byteOffset":5544,"target":34963,"name":"BufferViewIndex"}],"extensionsRequired":["MSFT_texture_dds"],"materials":[{"name":"Main","normalTexture":{"index":2},"occlusionTexture":{"index":1},"pbrMetallicRoughness":{"baseColorTexture":{"index":0},"metallicRoughnessTexture":{"index":1}}},{"name":"Wings","normalTexture":{"index":5},"occlusionTexture":{"index":4},"pbrMetallicRoughness":{"baseColorTexture":{"index":3},"metallicRoughnessTexture":{"index":4}}}],"meshes":[{"primitives":[{"attributes":{"COLOR_0":5,"NORMAL":2,"POSITION":0,"TANGENT":1,"TEXCOORD_0":3,"TEXCOORD_1":4},"indices":6,"material":0,"mode":4,"extras":{"ASOBO_primitive":{"PrimitiveCount":58,"VertexType":"VTX","VertexVersion":2}}}],"name":"x4_main_Fuselage"},{"primitives":[{"attributes":{"COLOR_0":12,"NORMAL":9,"POSITION":7,"TANGENT":8,"TEXCOORD_0":10,"TEXCOORD_1":11},"indices":13,"material":1,"mode":4,"extras":{"ASOBO_primitive":{"PrimitiveCount":10,"VertexType":"VTX","VertexVersion":2}}}],"name":"x4_wing"},{"primitives":[{"attributes":{"COLOR_0":19,"NORMAL":16,"POSITION":14,"TANGENT":15,"TEXCOORD_0":17,"TEXCOORD_1":18},"indices":20,"material":0,"mode":4,"extras":{"ASOBO_primitive":{"PrimitiveCount":4,"VertexType":"VTX","VertexVersion":2}}}],"name":"x4_main_Glass"},{"primitives":[{"attributes":{"COLOR_0":26,"NORMAL":23,"POSITION":21,"TANGENT":22,"TEXCOORD_0":24,"TEXCOORD_1":25},"indices":27,"material":0,"mode":4,"extras":{"ASOBO_primitive":{"PrimitiveCount":8,"VertexType":"VTX","VertexVersion":2}}}],"name":"x4_main_Windshield"}],"nodes":[{"translation":[-6.071532e-18,1.44328993e-15,4.6629367e-15],"scale":[0.01,0.01,0.01],"mesh":0,"extensions":{"ASOBO_unique_id":{"id":"x4_main_Fuselage_2140"}},"name":"main_Fuselage"},{"translation":[0.0,0.273740768,-1.97894287],"scale":[0.01,0.01,0.01],"mesh":1,"extensions":{"ASOBO_unique_id":{"id":"x4_wing_2123"}},"name":"wing"},{"translation":[0.0009999871,0.5329628,-0.696334839],"scale":[0.01,0.01,0.01],"mesh":2,"extensions":{"ASOBO_unique_id":{"id":"x4_main_Glass_2121"}},"name":"main_Glass"},{"translation":[0.00218221545,0.6855545,0.694549561],"scale":[0.01,0.01,0.01],"mesh":3,"extensions":{"ASOBO_unique_id":{"id":"x4_main_Windshield_2120"}},"name":"main_Windshield"}],"scene":0,"scenes":[{"nodes":[0,1,2,3]}],"textures":[{"extensions":{"MSFT_texture_dds":{"source":0}}},{"extensions":{"MSFT_texture_dds":{"source":1}}},{"extensions":{"MSFT_texture_dds":{"source":2}}},{"extensions":{"MSFT_texture_dds":{"source":3}}},{"extensions":{"MSFT_texture_dds":{"source":4}}},{"extensions":{"MSFT_texture_dds":{"source":5}}}],"extensionsUsed":["ASOBO_normal_map_convention","ASOBO_unique_id","MSFT_texture_dds","ASOBO_asset_optimized"],"buffers":[{"byteLength":6024,"uri":"Generic_Piston_MultiEngines_LOD04.bin"}],"images":[{"uri":"GENERIC_PISTON_MULTIENGINES_MAIN_ALBD.PNG.DDS","extras":"ASOBO_image_converted_meta"},{"uri":"GENERIC_PISTON_MULTIENGINES_MAIN_COMP.PNG.DDS","extras":"ASOBO_image_converted_meta"},{"uri":"GENERIC_PISTON_MULTIENGINES_MAIN_NORM.PNG.DDS","extras":"ASOBO_image_converted_meta"},{"uri":"GENERIC_PISTON_MULTIENGINES_WINGS_ALBD.PNG.DDS","extras":"ASOBO_image_converted_meta"},{"uri":"GENERIC_PISTON_MULTIENGINES_WINGS_COMP.PNG.DDS","extras":"ASOBO_image_converted_meta"},{"uri":"GENERIC_PISTON_MULTIENGINES_WINGS_NORM.PNG.DDS","extras":"ASOBO_image_converted_meta"}]}
